<svg width="26" height="18" viewBox="0 0 26 18" fill="none" xmlns="http://www.w3.org/2000/svg">
<path d="M25.4518 8.45212L1.87114 8.45212L9.15672 1.16654C9.37083 0.952428 9.37083 0.605598 9.15672 0.391539C8.94261 0.17743 8.59578 0.17743 8.38172 0.391539L0.160582 8.61269C-0.0535273 8.8268 -0.0535273 9.17363 0.160582 9.38769L8.38172 17.6088C8.48875 17.7159 8.62902 17.7694 8.76925 17.7694C8.90947 17.7694 9.04969 17.7159 9.15677 17.6088C9.37088 17.3947 9.37088 17.0479 9.15677 16.8338L1.87114 9.54831L25.4519 9.54831C25.7548 9.54831 26 9.30317 26 9.00022C26 8.69727 25.7548 8.45212 25.4518 8.45212Z" fill="white"/>
</svg>
