<svg width="25" height="18" viewBox="0 0 25 18" fill="none" xmlns="http://www.w3.org/2000/svg">
<path d="M-0.451812 9.54812L23.1289 9.54812L15.8433 16.8337C15.6292 17.0478 15.6292 17.3946 15.8433 17.6087C16.0574 17.8228 16.4042 17.8228 16.6183 17.6087L24.8394 9.38755C25.0535 9.17344 25.0535 8.82661 24.8394 8.61255L16.6183 0.391401C16.5113 0.284372 16.371 0.230832 16.2308 0.230832C16.0905 0.230832 15.9503 0.284372 15.8432 0.3914C15.6291 0.60551 15.6291 0.952338 15.8432 1.1664L23.1289 8.45193L-0.451858 8.45193C-0.754808 8.45193 -0.999953 8.69707 -0.999953 9.00002C-0.999953 9.30297 -0.754762 9.54812 -0.451812 9.54812Z" fill="#28BD25"/>
</svg>
