<svg width="71" height="71" viewBox="0 0 71 71" fill="none" xmlns="http://www.w3.org/2000/svg">
<circle cx="3" cy="68" r="3" fill="#111111"/>
<circle cx="3" cy="55" r="3" fill="#111111"/>
<circle cx="3" cy="42" r="3" fill="#111111"/>
<circle cx="3" cy="29" r="3" fill="#111111"/>
<circle cx="3" cy="16" r="3" fill="#111111"/>
<circle cx="3" cy="3" r="3" fill="#111111"/>
<circle cx="16" cy="68" r="3" fill="#111111"/>
<circle cx="16" cy="55" r="3" fill="#111111"/>
<circle cx="16" cy="42" r="3" fill="#111111"/>
<circle cx="16" cy="29" r="3" fill="#111111"/>
<circle cx="16" cy="16" r="3" fill="#111111"/>
<circle cx="16" cy="3" r="3" fill="#111111"/>
<circle cx="29" cy="68" r="3" fill="#111111"/>
<circle cx="29" cy="55" r="3" fill="#111111"/>
<circle cx="29" cy="42" r="3" fill="#111111"/>
<circle cx="29" cy="29" r="3" fill="#111111"/>
<circle cx="29" cy="16" r="3" fill="#111111"/>
<circle cx="29" cy="3" r="3" fill="#111111"/>
<circle cx="42" cy="68" r="3" fill="#111111"/>
<circle cx="42" cy="55" r="3" fill="#111111"/>
<circle cx="42" cy="42" r="3" fill="#111111"/>
<circle cx="42" cy="29" r="3" fill="#111111"/>
<circle cx="42" cy="16" r="3" fill="#111111"/>
<circle cx="42" cy="3" r="3" fill="#111111"/>
<circle cx="55" cy="68" r="3" fill="#111111"/>
<circle cx="68" cy="68" r="3" fill="#111111"/>
<circle cx="55" cy="55" r="3" fill="#111111"/>
<circle cx="68" cy="55" r="3" fill="#111111"/>
<circle cx="55" cy="42" r="3" fill="#111111"/>
<circle cx="68" cy="42" r="3" fill="#111111"/>
<circle cx="55" cy="29" r="3" fill="#111111"/>
<circle cx="68" cy="29" r="3" fill="#111111"/>
<circle cx="55" cy="16" r="3" fill="#111111"/>
<circle cx="55" cy="3" r="3" fill="#111111"/>
<circle cx="68" cy="16" r="3" fill="#111111"/>
<circle cx="68" cy="3" r="3" fill="#111111"/>
</svg>
