<svg width="29" height="29" viewBox="0 0 29 29" fill="none" xmlns="http://www.w3.org/2000/svg">
<g clip-path="url(#clip0_3590_10525)">
<path d="M28.2105 21.2831L24.1635 17.236C22.7181 15.7907 20.261 16.3689 19.6828 18.2478C19.2492 19.5487 17.8039 20.2714 16.503 19.9822C13.6123 19.2596 9.70978 15.5016 8.9871 12.4663C8.55349 11.1654 9.42071 9.72006 10.7215 9.2865C12.6005 8.70836 13.1787 6.25123 11.7333 4.80586L7.68626 0.758819C6.52997 -0.25294 4.79553 -0.25294 3.78377 0.758819L1.03756 3.50502C-1.70864 6.39576 1.32664 14.0562 8.11988 20.8495C14.9131 27.6427 22.5736 30.8226 25.4643 27.9318L28.2105 25.1856C29.2223 24.0293 29.2223 22.2948 28.2105 21.2831Z" fill="#28BD25"/>
</g>
<defs>
<clipPath id="clip0_3590_10525">
<rect width="29" height="29" fill="white"/>
</clipPath>
</defs>
</svg>
