<svg width="143" height="129" viewBox="0 0 143 129" fill="none" xmlns="http://www.w3.org/2000/svg">
<path d="M135.85 21.5999H104.867V12.0666C104.859 5.48796 99.5286 0.158049 92.95 0.149902H50.05C43.4714 0.158049 38.1415 5.48796 38.1333 12.0666V21.5999H7.15C3.20144 21.5999 0 24.8013 0 28.7499V81.8023C0.0151286 84.8257 1.92017 87.5151 4.76667 88.5311V121.7C4.76667 125.648 7.96811 128.85 11.9167 128.85H131.083C135.032 128.85 138.233 125.648 138.233 121.7V88.5334C141.08 87.5163 142.986 84.8257 143 81.8023V28.7499C143 24.8013 139.799 21.5999 135.85 21.5999ZM42.9 12.0666C42.9 8.11801 46.1014 4.91657 50.05 4.91657H92.95C96.8986 4.91657 100.1 8.11801 100.1 12.0666V21.5999H95.3333V12.0666C95.3333 10.7504 94.2662 9.68324 92.95 9.68324H50.05C48.7338 9.68324 47.6667 10.7504 47.6667 12.0666V21.5999H42.9V12.0666ZM90.5667 21.5999H52.4333V14.4499H90.5667V21.5999ZM133.467 121.7C133.467 123.016 132.4 124.083 131.083 124.083H11.9167C10.6005 124.083 9.53333 123.016 9.53333 121.7V89.3503L61.9667 96.5818V102.633C61.9667 106.582 65.1681 109.783 69.1167 109.783H73.8833C77.8319 109.783 81.0333 106.582 81.0333 102.633V96.5818L133.467 89.3503V121.7ZM76.2667 102.633C76.2667 103.949 75.1995 105.017 73.8833 105.017H69.1167C67.8005 105.017 66.7333 103.949 66.7333 102.633V88.3332C66.7333 87.017 67.8005 85.9499 69.1167 85.9499H73.8833C75.1995 85.9499 76.2667 87.017 76.2667 88.3332V102.633ZM138.233 81.8023C138.234 82.9905 137.361 83.9983 136.184 84.1647L135.523 84.2555L81.0333 91.7697V88.3332C81.0333 84.3847 77.8319 81.1832 73.8833 81.1832H69.1167C65.1681 81.1832 61.9667 84.3847 61.9667 88.3332V91.7697L6.81834 84.1647C5.6418 83.9995 4.7655 82.9917 4.76667 81.8023V28.7499C4.76667 27.4337 5.83381 26.3666 7.15 26.3666H135.85C137.166 26.3666 138.233 27.4337 138.233 28.7499V81.8023Z" fill="#28BD25"/>
</svg>
