<svg width="126" height="152" viewBox="0 0 126 152" fill="none" xmlns="http://www.w3.org/2000/svg">
<path d="M119.895 111.984C116.553 106.811 111.96 102.701 106.581 100.047C106.127 99.6256 105.544 99.3433 104.895 99.2711C101.004 97.6193 96.9022 96.7812 92.6875 96.7812H83.7812V88.9488C88.9353 84.5266 92.6406 78.6692 94.4373 72.1406H95.6562C102.204 72.1406 107.531 66.8135 107.531 60.2656C107.531 57.1627 106.334 54.3353 104.378 52.2173C104.565 52.0588 104.747 51.8937 104.922 51.7189C106.605 50.0362 107.531 47.7998 107.531 45.4219C107.531 41.5141 105 38.1882 101.492 36.9918C100.443 23.3403 90.862 11.6743 77.6704 8.018C76.8887 3.93537 73.5195 0 68.9375 0H57.0625C52.4805 0 49.1113 3.93537 48.3296 8.018C35.1392 11.674 25.559 23.3379 24.5084 36.9877C23.2312 37.4208 22.06 38.1431 21.078 39.1249C19.3953 40.8075 18.4688 43.0439 18.4688 45.4219C18.4688 48.1421 19.696 50.5801 21.6245 52.215C19.6675 54.3329 18.4688 57.1615 18.4688 60.2656C18.4688 66.8135 23.7959 72.1406 30.3438 72.1406H31.5544C33.0542 77.5904 35.898 82.5936 39.8651 86.7264C40.6106 87.5036 41.4009 88.244 42.2188 88.9464V96.7812H33.3125C29.0975 96.7812 24.9958 97.6193 21.105 99.2708C20.4566 99.3433 19.873 99.6253 19.4196 100.047C14.0394 102.701 9.44731 106.811 6.10539 111.984C2.54052 117.502 0.65625 123.845 0.65625 130.328V149.031C0.65625 150.671 1.98536 152 3.625 152H122.375C124.015 152 125.344 150.671 125.344 149.031V130.328C125.344 123.845 123.459 117.502 119.895 111.984ZM18.4688 146.062H6.59375V130.328C6.59375 121.298 11.2197 112.643 18.4688 107.505V146.062ZM95.6562 66.2031H95.5209C95.6093 65.2154 95.6562 64.2242 95.6562 63.2344V54.3281C98.9302 54.3281 101.594 56.9917 101.594 60.2656C101.594 63.5396 98.9302 66.2031 95.6562 66.2031ZM48.1562 14.2913V27.6094C48.1562 29.249 49.4854 30.5781 51.125 30.5781C52.7646 30.5781 54.0938 29.249 54.0938 27.6094V10.4093C54.0938 10.4016 54.0938 10.3939 54.0938 10.3862V9.79688C54.0938 7.95744 55.6476 5.9375 57.0625 5.9375H68.9375C70.3524 5.9375 71.9062 7.95744 71.9062 9.79688V10.3862C71.9062 10.3939 71.9062 10.4016 71.9062 10.4093V27.6094C71.9062 29.249 73.2354 30.5781 74.875 30.5781C76.5146 30.5781 77.8438 29.249 77.8438 27.6094V14.2913C87.4298 17.6837 94.35 26.3583 95.4903 36.5156H30.5097C31.65 26.3583 38.5702 17.6837 48.1562 14.2913ZM30.3438 66.2031C27.0698 66.2031 24.4062 63.5396 24.4062 60.2656C24.4062 56.9917 27.0698 54.3281 30.3438 54.3281V63.2344C30.3438 64.2242 30.3907 65.2157 30.4791 66.2031H30.3438ZM30.3438 48.3906H27.375C25.738 48.3906 24.4062 47.0588 24.4062 45.4219C24.4062 44.6298 24.7153 43.8844 25.2764 43.3236C25.8378 42.7622 26.5829 42.4531 27.375 42.4531H98.625C100.262 42.4531 101.594 43.7849 101.594 45.4219C101.594 46.2139 101.285 46.9594 100.724 47.5202C100.163 48.0816 99.4171 48.3906 98.625 48.3906H95.6562H92.6875H33.3125H30.3438ZM36.8207 68.6325C36.8147 68.6001 36.8091 68.568 36.802 68.5363C36.4573 66.7939 36.2812 65.0106 36.2812 63.2344V54.3281H89.7188V63.2344C89.7188 65.0091 89.5427 66.7912 89.198 68.5351C89.1909 68.5671 89.1853 68.5995 89.1793 68.6319C87.8526 75.2542 84.1808 81.1823 78.8341 85.3284C74.1892 88.9366 68.714 90.8438 63 90.8438C57.286 90.8438 51.8108 88.9366 47.1614 85.3251C46.0971 84.5016 45.0842 83.5905 44.1496 82.6159C40.4045 78.7143 37.8716 73.8809 36.8207 68.6325ZM60.0312 146.062H36.2812V139.234C36.2812 137.595 34.9521 136.266 33.3125 136.266C31.6729 136.266 30.3438 137.595 30.3438 139.234V146.062H24.4062V104.344C26.333 103.617 28.3179 103.133 30.3438 102.895V121.422C30.3438 123.062 31.6729 124.391 33.3125 124.391C34.9521 124.391 36.2812 123.062 36.2812 121.422V102.719H43.9154L60.0312 119.641V146.062ZM48.1562 98.5625V93.0329C52.7373 95.4955 57.783 96.7812 63 96.7812C68.2173 96.7812 73.2633 95.4952 77.8438 93.0332V98.5625L63 114.148L48.1562 98.5625ZM101.594 146.062H95.6562V139.234C95.6562 137.595 94.3271 136.266 92.6875 136.266C91.0479 136.266 89.7188 137.595 89.7188 139.234V146.062H65.9688V119.641L82.0846 102.719H89.7188V121.422C89.7188 123.062 91.0479 124.391 92.6875 124.391C94.3271 124.391 95.6562 123.062 95.6562 121.422V102.895C97.6821 103.133 99.6667 103.618 101.594 104.344V146.062ZM119.406 146.062H107.531V107.505C114.78 112.643 119.406 121.298 119.406 130.328V146.062Z" fill="#28BD25"/>
</svg>
