<svg width="30" height="30" viewBox="0 0 30 30" fill="none" xmlns="http://www.w3.org/2000/svg">
<path d="M29.5205 13.8343L18.6864 3.00002C18.3772 2.69075 17.965 2.521 17.5255 2.521C17.0855 2.521 16.6735 2.69099 16.3642 3.00002L15.3806 3.98391C15.0716 4.29269 14.9013 4.70512 14.9013 5.14488C14.9013 5.58439 15.0716 6.01072 15.3806 6.3195L21.701 12.6538H1.62072C0.71536 12.6538 0 13.3626 0 14.2682V15.6592C0 16.5648 0.71536 17.345 1.62072 17.345H21.7727L15.3808 23.7147C15.0718 24.024 14.9016 24.4252 14.9016 24.865C14.9016 25.3042 15.0718 25.7113 15.3808 26.0203L16.3645 27.001C16.6738 27.3103 17.0857 27.4788 17.5257 27.4788C17.9652 27.4788 18.3774 27.3081 18.6867 26.9988L29.5207 16.1648C29.8307 15.8545 30.0012 15.4404 30 15.0002C30.001 14.5585 29.8307 14.1441 29.5205 13.8343Z" fill="#28BD25"/>
</svg>
