<svg width="292" height="383" viewBox="0 0 292 383" fill="none" xmlns="http://www.w3.org/2000/svg">
<circle cx="3" cy="380" r="3" fill="#111111"/>
<circle cx="3" cy="367" r="3" fill="#111111"/>
<circle cx="3" cy="354" r="3" fill="#111111"/>
<circle cx="3" cy="341" r="3" fill="#111111"/>
<circle cx="3" cy="328" r="3" fill="#111111"/>
<circle cx="3" cy="315" r="3" fill="#111111"/>
<circle cx="3" cy="302" r="3" fill="#111111"/>
<circle cx="3" cy="289" r="3" fill="#111111"/>
<circle cx="3" cy="276" r="3" fill="#111111"/>
<circle cx="3" cy="263" r="3" fill="#111111"/>
<circle cx="3" cy="250" r="3" fill="#111111"/>
<circle cx="3" cy="237" r="3" fill="#111111"/>
<circle cx="3" cy="224" r="3" fill="#111111"/>
<circle cx="3" cy="211" r="3" fill="#111111"/>
<circle cx="3" cy="198" r="3" fill="#111111"/>
<circle cx="3" cy="185" r="3" fill="#111111"/>
<circle cx="3" cy="172" r="3" fill="#111111"/>
<circle cx="3" cy="159" r="3" fill="#111111"/>
<circle cx="3" cy="146" r="3" fill="#111111"/>
<circle cx="3" cy="133" r="3" fill="#111111"/>
<circle cx="3" cy="120" r="3" fill="#111111"/>
<circle cx="3" cy="107" r="3" fill="#111111"/>
<circle cx="3" cy="94" r="3" fill="#111111"/>
<circle cx="3" cy="81" r="3" fill="#111111"/>
<circle cx="3" cy="68" r="3" fill="#111111"/>
<circle cx="3" cy="55" r="3" fill="#111111"/>
<circle cx="3" cy="42" r="3" fill="#111111"/>
<circle cx="3" cy="29" r="3" fill="#111111"/>
<circle cx="3" cy="16" r="3" fill="#111111"/>
<circle cx="3" cy="3" r="3" fill="#111111"/>
<circle cx="94" cy="380" r="3" fill="#111111"/>
<circle cx="94" cy="367" r="3" fill="#111111"/>
<circle cx="94" cy="354" r="3" fill="#111111"/>
<circle cx="94" cy="341" r="3" fill="#111111"/>
<circle cx="94" cy="328" r="3" fill="#111111"/>
<circle cx="94" cy="315" r="3" fill="#111111"/>
<circle cx="94" cy="302" r="3" fill="#111111"/>
<circle cx="94" cy="289" r="3" fill="#111111"/>
<circle cx="94" cy="276" r="3" fill="#111111"/>
<circle cx="94" cy="263" r="3" fill="#111111"/>
<circle cx="94" cy="250" r="3" fill="#111111"/>
<circle cx="94" cy="237" r="3" fill="#111111"/>
<circle cx="94" cy="224" r="3" fill="#111111"/>
<circle cx="94" cy="211" r="3" fill="#111111"/>
<circle cx="94" cy="198" r="3" fill="#111111"/>
<circle cx="94" cy="185" r="3" fill="#111111"/>
<circle cx="94" cy="172" r="3" fill="#111111"/>
<circle cx="94" cy="159" r="3" fill="#111111"/>
<circle cx="94" cy="146" r="3" fill="#111111"/>
<circle cx="94" cy="133" r="3" fill="#111111"/>
<circle cx="94" cy="120" r="3" fill="#111111"/>
<circle cx="94" cy="107" r="3" fill="#111111"/>
<circle cx="94" cy="94" r="3" fill="#111111"/>
<circle cx="94" cy="81" r="3" fill="#111111"/>
<circle cx="94" cy="68" r="3" fill="#111111"/>
<circle cx="94" cy="55" r="3" fill="#111111"/>
<circle cx="94" cy="42" r="3" fill="#111111"/>
<circle cx="94" cy="29" r="3" fill="#111111"/>
<circle cx="94" cy="16" r="3" fill="#111111"/>
<circle cx="94" cy="3" r="3" fill="#111111"/>
<circle cx="185" cy="380" r="3" fill="#111111"/>
<circle cx="185" cy="367" r="3" fill="#111111"/>
<circle cx="185" cy="354" r="3" fill="#111111"/>
<circle cx="185" cy="341" r="3" fill="#111111"/>
<circle cx="185" cy="328" r="3" fill="#111111"/>
<circle cx="185" cy="315" r="3" fill="#111111"/>
<circle cx="185" cy="302" r="3" fill="#111111"/>
<circle cx="185" cy="289" r="3" fill="#111111"/>
<circle cx="185" cy="276" r="3" fill="#111111"/>
<circle cx="185" cy="263" r="3" fill="#111111"/>
<circle cx="185" cy="250" r="3" fill="#111111"/>
<circle cx="185" cy="237" r="3" fill="#111111"/>
<circle cx="185" cy="224" r="3" fill="#111111"/>
<circle cx="185" cy="211" r="3" fill="#111111"/>
<circle cx="185" cy="198" r="3" fill="#111111"/>
<circle cx="185" cy="185" r="3" fill="#111111"/>
<circle cx="185" cy="172" r="3" fill="#111111"/>
<circle cx="185" cy="159" r="3" fill="#111111"/>
<circle cx="185" cy="146" r="3" fill="#111111"/>
<circle cx="185" cy="133" r="3" fill="#111111"/>
<circle cx="185" cy="120" r="3" fill="#111111"/>
<circle cx="185" cy="107" r="3" fill="#111111"/>
<circle cx="185" cy="94" r="3" fill="#111111"/>
<circle cx="185" cy="81" r="3" fill="#111111"/>
<circle cx="185" cy="68" r="3" fill="#111111"/>
<circle cx="185" cy="55" r="3" fill="#111111"/>
<circle cx="185" cy="42" r="3" fill="#111111"/>
<circle cx="185" cy="29" r="3" fill="#111111"/>
<circle cx="185" cy="16" r="3" fill="#111111"/>
<circle cx="185" cy="3" r="3" fill="#111111"/>
<circle cx="16" cy="380" r="3" fill="#111111"/>
<circle cx="16" cy="367" r="3" fill="#111111"/>
<circle cx="16" cy="354" r="3" fill="#111111"/>
<circle cx="16" cy="341" r="3" fill="#111111"/>
<circle cx="16" cy="328" r="3" fill="#111111"/>
<circle cx="16" cy="315" r="3" fill="#111111"/>
<circle cx="16" cy="302" r="3" fill="#111111"/>
<circle cx="16" cy="289" r="3" fill="#111111"/>
<circle cx="16" cy="276" r="3" fill="#111111"/>
<circle cx="16" cy="263" r="3" fill="#111111"/>
<circle cx="16" cy="250" r="3" fill="#111111"/>
<circle cx="16" cy="237" r="3" fill="#111111"/>
<circle cx="16" cy="224" r="3" fill="#111111"/>
<circle cx="16" cy="211" r="3" fill="#111111"/>
<circle cx="16" cy="198" r="3" fill="#111111"/>
<circle cx="16" cy="185" r="3" fill="#111111"/>
<circle cx="16" cy="172" r="3" fill="#111111"/>
<circle cx="16" cy="159" r="3" fill="#111111"/>
<circle cx="16" cy="146" r="3" fill="#111111"/>
<circle cx="16" cy="133" r="3" fill="#111111"/>
<circle cx="16" cy="120" r="3" fill="#111111"/>
<circle cx="16" cy="107" r="3" fill="#111111"/>
<circle cx="16" cy="94" r="3" fill="#111111"/>
<circle cx="16" cy="81" r="3" fill="#111111"/>
<circle cx="16" cy="68" r="3" fill="#111111"/>
<circle cx="16" cy="55" r="3" fill="#111111"/>
<circle cx="16" cy="42" r="3" fill="#111111"/>
<circle cx="16" cy="29" r="3" fill="#111111"/>
<circle cx="16" cy="16" r="3" fill="#111111"/>
<circle cx="16" cy="3" r="3" fill="#111111"/>
<circle cx="107" cy="380" r="3" fill="#111111"/>
<circle cx="107" cy="367" r="3" fill="#111111"/>
<circle cx="107" cy="354" r="3" fill="#111111"/>
<circle cx="107" cy="341" r="3" fill="#111111"/>
<circle cx="107" cy="328" r="3" fill="#111111"/>
<circle cx="107" cy="315" r="3" fill="#111111"/>
<circle cx="107" cy="302" r="3" fill="#111111"/>
<circle cx="107" cy="289" r="3" fill="#111111"/>
<circle cx="107" cy="276" r="3" fill="#111111"/>
<circle cx="107" cy="263" r="3" fill="#111111"/>
<circle cx="107" cy="250" r="3" fill="#111111"/>
<circle cx="107" cy="237" r="3" fill="#111111"/>
<circle cx="107" cy="224" r="3" fill="#111111"/>
<circle cx="107" cy="211" r="3" fill="#111111"/>
<circle cx="107" cy="198" r="3" fill="#111111"/>
<circle cx="107" cy="185" r="3" fill="#111111"/>
<circle cx="107" cy="172" r="3" fill="#111111"/>
<circle cx="107" cy="159" r="3" fill="#111111"/>
<circle cx="107" cy="146" r="3" fill="#111111"/>
<circle cx="107" cy="133" r="3" fill="#111111"/>
<circle cx="107" cy="120" r="3" fill="#111111"/>
<circle cx="107" cy="107" r="3" fill="#111111"/>
<circle cx="107" cy="94" r="3" fill="#111111"/>
<circle cx="107" cy="81" r="3" fill="#111111"/>
<circle cx="107" cy="68" r="3" fill="#111111"/>
<circle cx="107" cy="55" r="3" fill="#111111"/>
<circle cx="107" cy="42" r="3" fill="#111111"/>
<circle cx="107" cy="29" r="3" fill="#111111"/>
<circle cx="107" cy="16" r="3" fill="#111111"/>
<circle cx="107" cy="3" r="3" fill="#111111"/>
<circle cx="198" cy="380" r="3" fill="#111111"/>
<circle cx="198" cy="367" r="3" fill="#111111"/>
<circle cx="198" cy="354" r="3" fill="#111111"/>
<circle cx="198" cy="341" r="3" fill="#111111"/>
<circle cx="198" cy="328" r="3" fill="#111111"/>
<circle cx="198" cy="315" r="3" fill="#111111"/>
<circle cx="198" cy="302" r="3" fill="#111111"/>
<circle cx="198" cy="289" r="3" fill="#111111"/>
<circle cx="198" cy="276" r="3" fill="#111111"/>
<circle cx="198" cy="263" r="3" fill="#111111"/>
<circle cx="198" cy="250" r="3" fill="#111111"/>
<circle cx="198" cy="237" r="3" fill="#111111"/>
<circle cx="198" cy="224" r="3" fill="#111111"/>
<circle cx="198" cy="211" r="3" fill="#111111"/>
<circle cx="198" cy="198" r="3" fill="#111111"/>
<circle cx="198" cy="185" r="3" fill="#111111"/>
<circle cx="198" cy="172" r="3" fill="#111111"/>
<circle cx="198" cy="159" r="3" fill="#111111"/>
<circle cx="198" cy="146" r="3" fill="#111111"/>
<circle cx="198" cy="133" r="3" fill="#111111"/>
<circle cx="198" cy="120" r="3" fill="#111111"/>
<circle cx="198" cy="107" r="3" fill="#111111"/>
<circle cx="198" cy="94" r="3" fill="#111111"/>
<circle cx="198" cy="81" r="3" fill="#111111"/>
<circle cx="198" cy="68" r="3" fill="#111111"/>
<circle cx="198" cy="55" r="3" fill="#111111"/>
<circle cx="198" cy="42" r="3" fill="#111111"/>
<circle cx="198" cy="29" r="3" fill="#111111"/>
<circle cx="198" cy="16" r="3" fill="#111111"/>
<circle cx="198" cy="3" r="3" fill="#111111"/>
<circle cx="29" cy="380" r="3" fill="#111111"/>
<circle cx="29" cy="367" r="3" fill="#111111"/>
<circle cx="29" cy="354" r="3" fill="#111111"/>
<circle cx="29" cy="341" r="3" fill="#111111"/>
<circle cx="29" cy="328" r="3" fill="#111111"/>
<circle cx="29" cy="315" r="3" fill="#111111"/>
<circle cx="29" cy="302" r="3" fill="#111111"/>
<circle cx="29" cy="289" r="3" fill="#111111"/>
<circle cx="29" cy="276" r="3" fill="#111111"/>
<circle cx="29" cy="263" r="3" fill="#111111"/>
<circle cx="29" cy="250" r="3" fill="#111111"/>
<circle cx="29" cy="237" r="3" fill="#111111"/>
<circle cx="29" cy="224" r="3" fill="#111111"/>
<circle cx="29" cy="211" r="3" fill="#111111"/>
<circle cx="29" cy="198" r="3" fill="#111111"/>
<circle cx="29" cy="185" r="3" fill="#111111"/>
<circle cx="29" cy="172" r="3" fill="#111111"/>
<circle cx="29" cy="159" r="3" fill="#111111"/>
<circle cx="29" cy="146" r="3" fill="#111111"/>
<circle cx="29" cy="133" r="3" fill="#111111"/>
<circle cx="29" cy="120" r="3" fill="#111111"/>
<circle cx="29" cy="107" r="3" fill="#111111"/>
<circle cx="29" cy="94" r="3" fill="#111111"/>
<circle cx="29" cy="81" r="3" fill="#111111"/>
<circle cx="29" cy="68" r="3" fill="#111111"/>
<circle cx="29" cy="55" r="3" fill="#111111"/>
<circle cx="29" cy="42" r="3" fill="#111111"/>
<circle cx="29" cy="29" r="3" fill="#111111"/>
<circle cx="29" cy="16" r="3" fill="#111111"/>
<circle cx="29" cy="3" r="3" fill="#111111"/>
<circle cx="120" cy="380" r="3" fill="#111111"/>
<circle cx="120" cy="367" r="3" fill="#111111"/>
<circle cx="120" cy="354" r="3" fill="#111111"/>
<circle cx="120" cy="341" r="3" fill="#111111"/>
<circle cx="120" cy="328" r="3" fill="#111111"/>
<circle cx="120" cy="315" r="3" fill="#111111"/>
<circle cx="120" cy="302" r="3" fill="#111111"/>
<circle cx="120" cy="289" r="3" fill="#111111"/>
<circle cx="120" cy="276" r="3" fill="#111111"/>
<circle cx="120" cy="263" r="3" fill="#111111"/>
<circle cx="120" cy="250" r="3" fill="#111111"/>
<circle cx="120" cy="237" r="3" fill="#111111"/>
<circle cx="120" cy="224" r="3" fill="#111111"/>
<circle cx="120" cy="211" r="3" fill="#111111"/>
<circle cx="120" cy="198" r="3" fill="#111111"/>
<circle cx="120" cy="185" r="3" fill="#111111"/>
<circle cx="120" cy="172" r="3" fill="#111111"/>
<circle cx="120" cy="159" r="3" fill="#111111"/>
<circle cx="120" cy="146" r="3" fill="#111111"/>
<circle cx="120" cy="133" r="3" fill="#111111"/>
<circle cx="120" cy="120" r="3" fill="#111111"/>
<circle cx="120" cy="107" r="3" fill="#111111"/>
<circle cx="120" cy="94" r="3" fill="#111111"/>
<circle cx="120" cy="81" r="3" fill="#111111"/>
<circle cx="120" cy="68" r="3" fill="#111111"/>
<circle cx="120" cy="55" r="3" fill="#111111"/>
<circle cx="120" cy="42" r="3" fill="#111111"/>
<circle cx="120" cy="29" r="3" fill="#111111"/>
<circle cx="120" cy="16" r="3" fill="#111111"/>
<circle cx="120" cy="3" r="3" fill="#111111"/>
<circle cx="211" cy="380" r="3" fill="#111111"/>
<circle cx="211" cy="367" r="3" fill="#111111"/>
<circle cx="211" cy="354" r="3" fill="#111111"/>
<circle cx="211" cy="341" r="3" fill="#111111"/>
<circle cx="211" cy="328" r="3" fill="#111111"/>
<circle cx="211" cy="315" r="3" fill="#111111"/>
<circle cx="211" cy="302" r="3" fill="#111111"/>
<circle cx="211" cy="289" r="3" fill="#111111"/>
<circle cx="211" cy="276" r="3" fill="#111111"/>
<circle cx="211" cy="263" r="3" fill="#111111"/>
<circle cx="211" cy="250" r="3" fill="#111111"/>
<circle cx="211" cy="237" r="3" fill="#111111"/>
<circle cx="211" cy="224" r="3" fill="#111111"/>
<circle cx="211" cy="211" r="3" fill="#111111"/>
<circle cx="211" cy="198" r="3" fill="#111111"/>
<circle cx="211" cy="185" r="3" fill="#111111"/>
<circle cx="211" cy="172" r="3" fill="#111111"/>
<circle cx="211" cy="159" r="3" fill="#111111"/>
<circle cx="211" cy="146" r="3" fill="#111111"/>
<circle cx="211" cy="133" r="3" fill="#111111"/>
<circle cx="211" cy="120" r="3" fill="#111111"/>
<circle cx="211" cy="107" r="3" fill="#111111"/>
<circle cx="211" cy="94" r="3" fill="#111111"/>
<circle cx="211" cy="81" r="3" fill="#111111"/>
<circle cx="211" cy="68" r="3" fill="#111111"/>
<circle cx="211" cy="55" r="3" fill="#111111"/>
<circle cx="211" cy="42" r="3" fill="#111111"/>
<circle cx="211" cy="29" r="3" fill="#111111"/>
<circle cx="211" cy="16" r="3" fill="#111111"/>
<circle cx="211" cy="3" r="3" fill="#111111"/>
<circle cx="42" cy="380" r="3" fill="#111111"/>
<circle cx="42" cy="367" r="3" fill="#111111"/>
<circle cx="42" cy="354" r="3" fill="#111111"/>
<circle cx="42" cy="341" r="3" fill="#111111"/>
<circle cx="42" cy="328" r="3" fill="#111111"/>
<circle cx="42" cy="315" r="3" fill="#111111"/>
<circle cx="42" cy="302" r="3" fill="#111111"/>
<circle cx="42" cy="289" r="3" fill="#111111"/>
<circle cx="42" cy="276" r="3" fill="#111111"/>
<circle cx="42" cy="263" r="3" fill="#111111"/>
<circle cx="42" cy="250" r="3" fill="#111111"/>
<circle cx="42" cy="237" r="3" fill="#111111"/>
<circle cx="42" cy="224" r="3" fill="#111111"/>
<circle cx="42" cy="211" r="3" fill="#111111"/>
<circle cx="42" cy="198" r="3" fill="#111111"/>
<circle cx="42" cy="185" r="3" fill="#111111"/>
<circle cx="42" cy="172" r="3" fill="#111111"/>
<circle cx="42" cy="159" r="3" fill="#111111"/>
<circle cx="42" cy="146" r="3" fill="#111111"/>
<circle cx="42" cy="133" r="3" fill="#111111"/>
<circle cx="42" cy="120" r="3" fill="#111111"/>
<circle cx="42" cy="107" r="3" fill="#111111"/>
<circle cx="42" cy="94" r="3" fill="#111111"/>
<circle cx="42" cy="81" r="3" fill="#111111"/>
<circle cx="42" cy="68" r="3" fill="#111111"/>
<circle cx="42" cy="55" r="3" fill="#111111"/>
<circle cx="42" cy="42" r="3" fill="#111111"/>
<circle cx="42" cy="29" r="3" fill="#111111"/>
<circle cx="42" cy="16" r="3" fill="#111111"/>
<circle cx="42" cy="3" r="3" fill="#111111"/>
<circle cx="133" cy="380" r="3" fill="#111111"/>
<circle cx="133" cy="367" r="3" fill="#111111"/>
<circle cx="133" cy="354" r="3" fill="#111111"/>
<circle cx="133" cy="341" r="3" fill="#111111"/>
<circle cx="133" cy="328" r="3" fill="#111111"/>
<circle cx="133" cy="315" r="3" fill="#111111"/>
<circle cx="133" cy="302" r="3" fill="#111111"/>
<circle cx="133" cy="289" r="3" fill="#111111"/>
<circle cx="133" cy="276" r="3" fill="#111111"/>
<circle cx="133" cy="263" r="3" fill="#111111"/>
<circle cx="133" cy="250" r="3" fill="#111111"/>
<circle cx="133" cy="237" r="3" fill="#111111"/>
<circle cx="133" cy="224" r="3" fill="#111111"/>
<circle cx="133" cy="211" r="3" fill="#111111"/>
<circle cx="133" cy="198" r="3" fill="#111111"/>
<circle cx="133" cy="185" r="3" fill="#111111"/>
<circle cx="133" cy="172" r="3" fill="#111111"/>
<circle cx="133" cy="159" r="3" fill="#111111"/>
<circle cx="133" cy="146" r="3" fill="#111111"/>
<circle cx="133" cy="133" r="3" fill="#111111"/>
<circle cx="133" cy="120" r="3" fill="#111111"/>
<circle cx="133" cy="107" r="3" fill="#111111"/>
<circle cx="133" cy="94" r="3" fill="#111111"/>
<circle cx="133" cy="81" r="3" fill="#111111"/>
<circle cx="133" cy="68" r="3" fill="#111111"/>
<circle cx="133" cy="55" r="3" fill="#111111"/>
<circle cx="133" cy="42" r="3" fill="#111111"/>
<circle cx="133" cy="29" r="3" fill="#111111"/>
<circle cx="133" cy="16" r="3" fill="#111111"/>
<circle cx="133" cy="3" r="3" fill="#111111"/>
<circle cx="224" cy="380" r="3" fill="#111111"/>
<circle cx="224" cy="367" r="3" fill="#111111"/>
<circle cx="224" cy="354" r="3" fill="#111111"/>
<circle cx="224" cy="341" r="3" fill="#111111"/>
<circle cx="224" cy="328" r="3" fill="#111111"/>
<circle cx="224" cy="315" r="3" fill="#111111"/>
<circle cx="224" cy="302" r="3" fill="#111111"/>
<circle cx="224" cy="289" r="3" fill="#111111"/>
<circle cx="224" cy="276" r="3" fill="#111111"/>
<circle cx="224" cy="263" r="3" fill="#111111"/>
<circle cx="224" cy="250" r="3" fill="#111111"/>
<circle cx="224" cy="237" r="3" fill="#111111"/>
<circle cx="224" cy="224" r="3" fill="#111111"/>
<circle cx="224" cy="211" r="3" fill="#111111"/>
<circle cx="224" cy="198" r="3" fill="#111111"/>
<circle cx="224" cy="185" r="3" fill="#111111"/>
<circle cx="224" cy="172" r="3" fill="#111111"/>
<circle cx="224" cy="159" r="3" fill="#111111"/>
<circle cx="224" cy="146" r="3" fill="#111111"/>
<circle cx="224" cy="133" r="3" fill="#111111"/>
<circle cx="224" cy="120" r="3" fill="#111111"/>
<circle cx="224" cy="107" r="3" fill="#111111"/>
<circle cx="224" cy="94" r="3" fill="#111111"/>
<circle cx="224" cy="81" r="3" fill="#111111"/>
<circle cx="224" cy="68" r="3" fill="#111111"/>
<circle cx="224" cy="55" r="3" fill="#111111"/>
<circle cx="224" cy="42" r="3" fill="#111111"/>
<circle cx="224" cy="29" r="3" fill="#111111"/>
<circle cx="224" cy="16" r="3" fill="#111111"/>
<circle cx="224" cy="3" r="3" fill="#111111"/>
<circle cx="55" cy="380" r="3" fill="#111111"/>
<circle cx="55" cy="367" r="3" fill="#111111"/>
<circle cx="55" cy="354" r="3" fill="#111111"/>
<circle cx="55" cy="341" r="3" fill="#111111"/>
<circle cx="55" cy="328" r="3" fill="#111111"/>
<circle cx="55" cy="315" r="3" fill="#111111"/>
<circle cx="55" cy="302" r="3" fill="#111111"/>
<circle cx="55" cy="289" r="3" fill="#111111"/>
<circle cx="55" cy="276" r="3" fill="#111111"/>
<circle cx="55" cy="263" r="3" fill="#111111"/>
<circle cx="55" cy="250" r="3" fill="#111111"/>
<circle cx="55" cy="237" r="3" fill="#111111"/>
<circle cx="55" cy="224" r="3" fill="#111111"/>
<circle cx="55" cy="211" r="3" fill="#111111"/>
<circle cx="55" cy="198" r="3" fill="#111111"/>
<circle cx="55" cy="185" r="3" fill="#111111"/>
<circle cx="55" cy="172" r="3" fill="#111111"/>
<circle cx="55" cy="159" r="3" fill="#111111"/>
<circle cx="55" cy="146" r="3" fill="#111111"/>
<circle cx="55" cy="133" r="3" fill="#111111"/>
<circle cx="55" cy="120" r="3" fill="#111111"/>
<circle cx="55" cy="107" r="3" fill="#111111"/>
<circle cx="55" cy="94" r="3" fill="#111111"/>
<circle cx="55" cy="81" r="3" fill="#111111"/>
<circle cx="55" cy="68" r="3" fill="#111111"/>
<circle cx="55" cy="55" r="3" fill="#111111"/>
<circle cx="55" cy="42" r="3" fill="#111111"/>
<circle cx="55" cy="29" r="3" fill="#111111"/>
<circle cx="55" cy="16" r="3" fill="#111111"/>
<circle cx="55" cy="3" r="3" fill="#111111"/>
<circle cx="146" cy="380" r="3" fill="#111111"/>
<circle cx="146" cy="367" r="3" fill="#111111"/>
<circle cx="146" cy="354" r="3" fill="#111111"/>
<circle cx="146" cy="341" r="3" fill="#111111"/>
<circle cx="146" cy="328" r="3" fill="#111111"/>
<circle cx="146" cy="315" r="3" fill="#111111"/>
<circle cx="146" cy="302" r="3" fill="#111111"/>
<circle cx="146" cy="289" r="3" fill="#111111"/>
<circle cx="146" cy="276" r="3" fill="#111111"/>
<circle cx="146" cy="263" r="3" fill="#111111"/>
<circle cx="146" cy="250" r="3" fill="#111111"/>
<circle cx="146" cy="237" r="3" fill="#111111"/>
<circle cx="146" cy="224" r="3" fill="#111111"/>
<circle cx="146" cy="211" r="3" fill="#111111"/>
<circle cx="146" cy="198" r="3" fill="#111111"/>
<circle cx="146" cy="185" r="3" fill="#111111"/>
<circle cx="146" cy="172" r="3" fill="#111111"/>
<circle cx="146" cy="159" r="3" fill="#111111"/>
<circle cx="146" cy="146" r="3" fill="#111111"/>
<circle cx="146" cy="133" r="3" fill="#111111"/>
<circle cx="146" cy="120" r="3" fill="#111111"/>
<circle cx="146" cy="107" r="3" fill="#111111"/>
<circle cx="146" cy="94" r="3" fill="#111111"/>
<circle cx="146" cy="81" r="3" fill="#111111"/>
<circle cx="146" cy="68" r="3" fill="#111111"/>
<circle cx="146" cy="55" r="3" fill="#111111"/>
<circle cx="146" cy="42" r="3" fill="#111111"/>
<circle cx="146" cy="29" r="3" fill="#111111"/>
<circle cx="146" cy="16" r="3" fill="#111111"/>
<circle cx="146" cy="3" r="3" fill="#111111"/>
<circle cx="237" cy="380" r="3" fill="#111111"/>
<circle cx="237" cy="367" r="3" fill="#111111"/>
<circle cx="237" cy="354" r="3" fill="#111111"/>
<circle cx="237" cy="341" r="3" fill="#111111"/>
<circle cx="237" cy="328" r="3" fill="#111111"/>
<circle cx="237" cy="315" r="3" fill="#111111"/>
<circle cx="237" cy="302" r="3" fill="#111111"/>
<circle cx="237" cy="289" r="3" fill="#111111"/>
<circle cx="237" cy="276" r="3" fill="#111111"/>
<circle cx="237" cy="263" r="3" fill="#111111"/>
<circle cx="237" cy="250" r="3" fill="#111111"/>
<circle cx="237" cy="237" r="3" fill="#111111"/>
<circle cx="237" cy="224" r="3" fill="#111111"/>
<circle cx="237" cy="211" r="3" fill="#111111"/>
<circle cx="237" cy="198" r="3" fill="#111111"/>
<circle cx="237" cy="185" r="3" fill="#111111"/>
<circle cx="237" cy="172" r="3" fill="#111111"/>
<circle cx="237" cy="159" r="3" fill="#111111"/>
<circle cx="237" cy="146" r="3" fill="#111111"/>
<circle cx="237" cy="133" r="3" fill="#111111"/>
<circle cx="237" cy="120" r="3" fill="#111111"/>
<circle cx="237" cy="107" r="3" fill="#111111"/>
<circle cx="237" cy="94" r="3" fill="#111111"/>
<circle cx="237" cy="81" r="3" fill="#111111"/>
<circle cx="237" cy="68" r="3" fill="#111111"/>
<circle cx="237" cy="55" r="3" fill="#111111"/>
<circle cx="237" cy="42" r="3" fill="#111111"/>
<circle cx="237" cy="29" r="3" fill="#111111"/>
<circle cx="237" cy="16" r="3" fill="#111111"/>
<circle cx="237" cy="3" r="3" fill="#111111"/>
<circle cx="68" cy="380" r="3" fill="#111111"/>
<circle cx="68" cy="367" r="3" fill="#111111"/>
<circle cx="68" cy="354" r="3" fill="#111111"/>
<circle cx="68" cy="341" r="3" fill="#111111"/>
<circle cx="68" cy="328" r="3" fill="#111111"/>
<circle cx="68" cy="315" r="3" fill="#111111"/>
<circle cx="68" cy="302" r="3" fill="#111111"/>
<circle cx="68" cy="289" r="3" fill="#111111"/>
<circle cx="68" cy="276" r="3" fill="#111111"/>
<circle cx="68" cy="263" r="3" fill="#111111"/>
<circle cx="68" cy="250" r="3" fill="#111111"/>
<circle cx="68" cy="237" r="3" fill="#111111"/>
<circle cx="68" cy="224" r="3" fill="#111111"/>
<circle cx="68" cy="211" r="3" fill="#111111"/>
<circle cx="68" cy="198" r="3" fill="#111111"/>
<circle cx="68" cy="185" r="3" fill="#111111"/>
<circle cx="68" cy="172" r="3" fill="#111111"/>
<circle cx="68" cy="159" r="3" fill="#111111"/>
<circle cx="68" cy="146" r="3" fill="#111111"/>
<circle cx="68" cy="133" r="3" fill="#111111"/>
<circle cx="68" cy="120" r="3" fill="#111111"/>
<circle cx="68" cy="107" r="3" fill="#111111"/>
<circle cx="68" cy="94" r="3" fill="#111111"/>
<circle cx="68" cy="81" r="3" fill="#111111"/>
<circle cx="68" cy="68" r="3" fill="#111111"/>
<circle cx="68" cy="55" r="3" fill="#111111"/>
<circle cx="68" cy="42" r="3" fill="#111111"/>
<circle cx="68" cy="29" r="3" fill="#111111"/>
<circle cx="68" cy="16" r="3" fill="#111111"/>
<circle cx="68" cy="3" r="3" fill="#111111"/>
<circle cx="159" cy="380" r="3" fill="#111111"/>
<circle cx="159" cy="367" r="3" fill="#111111"/>
<circle cx="159" cy="354" r="3" fill="#111111"/>
<circle cx="159" cy="341" r="3" fill="#111111"/>
<circle cx="159" cy="328" r="3" fill="#111111"/>
<circle cx="159" cy="315" r="3" fill="#111111"/>
<circle cx="159" cy="302" r="3" fill="#111111"/>
<circle cx="159" cy="289" r="3" fill="#111111"/>
<circle cx="159" cy="276" r="3" fill="#111111"/>
<circle cx="159" cy="263" r="3" fill="#111111"/>
<circle cx="159" cy="250" r="3" fill="#111111"/>
<circle cx="159" cy="237" r="3" fill="#111111"/>
<circle cx="159" cy="224" r="3" fill="#111111"/>
<circle cx="159" cy="211" r="3" fill="#111111"/>
<circle cx="159" cy="198" r="3" fill="#111111"/>
<circle cx="159" cy="185" r="3" fill="#111111"/>
<circle cx="159" cy="172" r="3" fill="#111111"/>
<circle cx="159" cy="159" r="3" fill="#111111"/>
<circle cx="159" cy="146" r="3" fill="#111111"/>
<circle cx="159" cy="133" r="3" fill="#111111"/>
<circle cx="159" cy="120" r="3" fill="#111111"/>
<circle cx="159" cy="107" r="3" fill="#111111"/>
<circle cx="159" cy="94" r="3" fill="#111111"/>
<circle cx="159" cy="81" r="3" fill="#111111"/>
<circle cx="159" cy="68" r="3" fill="#111111"/>
<circle cx="159" cy="55" r="3" fill="#111111"/>
<circle cx="159" cy="42" r="3" fill="#111111"/>
<circle cx="159" cy="29" r="3" fill="#111111"/>
<circle cx="159" cy="16" r="3" fill="#111111"/>
<circle cx="159" cy="3" r="3" fill="#111111"/>
<circle cx="250" cy="380" r="3" fill="#111111"/>
<circle cx="250" cy="367" r="3" fill="#111111"/>
<circle cx="250" cy="354" r="3" fill="#111111"/>
<circle cx="250" cy="341" r="3" fill="#111111"/>
<circle cx="250" cy="328" r="3" fill="#111111"/>
<circle cx="250" cy="315" r="3" fill="#111111"/>
<circle cx="250" cy="302" r="3" fill="#111111"/>
<circle cx="250" cy="289" r="3" fill="#111111"/>
<circle cx="250" cy="276" r="3" fill="#111111"/>
<circle cx="250" cy="263" r="3" fill="#111111"/>
<circle cx="250" cy="250" r="3" fill="#111111"/>
<circle cx="250" cy="237" r="3" fill="#111111"/>
<circle cx="250" cy="224" r="3" fill="#111111"/>
<circle cx="250" cy="211" r="3" fill="#111111"/>
<circle cx="250" cy="198" r="3" fill="#111111"/>
<circle cx="250" cy="185" r="3" fill="#111111"/>
<circle cx="250" cy="172" r="3" fill="#111111"/>
<circle cx="250" cy="159" r="3" fill="#111111"/>
<circle cx="250" cy="146" r="3" fill="#111111"/>
<circle cx="250" cy="133" r="3" fill="#111111"/>
<circle cx="250" cy="120" r="3" fill="#111111"/>
<circle cx="250" cy="107" r="3" fill="#111111"/>
<circle cx="250" cy="94" r="3" fill="#111111"/>
<circle cx="250" cy="81" r="3" fill="#111111"/>
<circle cx="250" cy="68" r="3" fill="#111111"/>
<circle cx="250" cy="55" r="3" fill="#111111"/>
<circle cx="250" cy="42" r="3" fill="#111111"/>
<circle cx="250" cy="29" r="3" fill="#111111"/>
<circle cx="250" cy="16" r="3" fill="#111111"/>
<circle cx="250" cy="3" r="3" fill="#111111"/>
<circle cx="276" cy="380" r="3" fill="#111111"/>
<circle cx="276" cy="367" r="3" fill="#111111"/>
<circle cx="276" cy="354" r="3" fill="#111111"/>
<circle cx="276" cy="341" r="3" fill="#111111"/>
<circle cx="276" cy="328" r="3" fill="#111111"/>
<circle cx="276" cy="315" r="3" fill="#111111"/>
<circle cx="276" cy="302" r="3" fill="#111111"/>
<circle cx="276" cy="289" r="3" fill="#111111"/>
<circle cx="276" cy="276" r="3" fill="#111111"/>
<circle cx="276" cy="263" r="3" fill="#111111"/>
<circle cx="276" cy="250" r="3" fill="#111111"/>
<circle cx="276" cy="237" r="3" fill="#111111"/>
<circle cx="276" cy="224" r="3" fill="#111111"/>
<circle cx="276" cy="211" r="3" fill="#111111"/>
<circle cx="276" cy="198" r="3" fill="#111111"/>
<circle cx="276" cy="185" r="3" fill="#111111"/>
<circle cx="276" cy="172" r="3" fill="#111111"/>
<circle cx="276" cy="159" r="3" fill="#111111"/>
<circle cx="276" cy="146" r="3" fill="#111111"/>
<circle cx="276" cy="133" r="3" fill="#111111"/>
<circle cx="276" cy="120" r="3" fill="#111111"/>
<circle cx="276" cy="107" r="3" fill="#111111"/>
<circle cx="276" cy="94" r="3" fill="#111111"/>
<circle cx="276" cy="81" r="3" fill="#111111"/>
<circle cx="276" cy="68" r="3" fill="#111111"/>
<circle cx="276" cy="55" r="3" fill="#111111"/>
<circle cx="276" cy="42" r="3" fill="#111111"/>
<circle cx="276" cy="29" r="3" fill="#111111"/>
<circle cx="276" cy="16" r="3" fill="#111111"/>
<circle cx="276" cy="3" r="3" fill="#111111"/>
<circle cx="81" cy="380" r="3" fill="#111111"/>
<circle cx="81" cy="367" r="3" fill="#111111"/>
<circle cx="81" cy="354" r="3" fill="#111111"/>
<circle cx="81" cy="341" r="3" fill="#111111"/>
<circle cx="81" cy="328" r="3" fill="#111111"/>
<circle cx="81" cy="315" r="3" fill="#111111"/>
<circle cx="81" cy="302" r="3" fill="#111111"/>
<circle cx="81" cy="289" r="3" fill="#111111"/>
<circle cx="81" cy="276" r="3" fill="#111111"/>
<circle cx="81" cy="263" r="3" fill="#111111"/>
<circle cx="81" cy="250" r="3" fill="#111111"/>
<circle cx="81" cy="237" r="3" fill="#111111"/>
<circle cx="81" cy="224" r="3" fill="#111111"/>
<circle cx="81" cy="211" r="3" fill="#111111"/>
<circle cx="81" cy="198" r="3" fill="#111111"/>
<circle cx="81" cy="185" r="3" fill="#111111"/>
<circle cx="81" cy="172" r="3" fill="#111111"/>
<circle cx="81" cy="159" r="3" fill="#111111"/>
<circle cx="81" cy="146" r="3" fill="#111111"/>
<circle cx="81" cy="133" r="3" fill="#111111"/>
<circle cx="81" cy="120" r="3" fill="#111111"/>
<circle cx="81" cy="107" r="3" fill="#111111"/>
<circle cx="81" cy="94" r="3" fill="#111111"/>
<circle cx="81" cy="81" r="3" fill="#111111"/>
<circle cx="81" cy="68" r="3" fill="#111111"/>
<circle cx="81" cy="55" r="3" fill="#111111"/>
<circle cx="81" cy="42" r="3" fill="#111111"/>
<circle cx="81" cy="29" r="3" fill="#111111"/>
<circle cx="81" cy="16" r="3" fill="#111111"/>
<circle cx="81" cy="3" r="3" fill="#111111"/>
<circle cx="172" cy="380" r="3" fill="#111111"/>
<circle cx="172" cy="367" r="3" fill="#111111"/>
<circle cx="172" cy="354" r="3" fill="#111111"/>
<circle cx="172" cy="341" r="3" fill="#111111"/>
<circle cx="172" cy="328" r="3" fill="#111111"/>
<circle cx="172" cy="315" r="3" fill="#111111"/>
<circle cx="172" cy="302" r="3" fill="#111111"/>
<circle cx="172" cy="289" r="3" fill="#111111"/>
<circle cx="172" cy="276" r="3" fill="#111111"/>
<circle cx="172" cy="263" r="3" fill="#111111"/>
<circle cx="172" cy="250" r="3" fill="#111111"/>
<circle cx="172" cy="237" r="3" fill="#111111"/>
<circle cx="172" cy="224" r="3" fill="#111111"/>
<circle cx="172" cy="211" r="3" fill="#111111"/>
<circle cx="172" cy="198" r="3" fill="#111111"/>
<circle cx="172" cy="185" r="3" fill="#111111"/>
<circle cx="172" cy="172" r="3" fill="#111111"/>
<circle cx="172" cy="159" r="3" fill="#111111"/>
<circle cx="172" cy="146" r="3" fill="#111111"/>
<circle cx="172" cy="133" r="3" fill="#111111"/>
<circle cx="172" cy="120" r="3" fill="#111111"/>
<circle cx="172" cy="107" r="3" fill="#111111"/>
<circle cx="172" cy="94" r="3" fill="#111111"/>
<circle cx="172" cy="81" r="3" fill="#111111"/>
<circle cx="172" cy="68" r="3" fill="#111111"/>
<circle cx="172" cy="55" r="3" fill="#111111"/>
<circle cx="172" cy="42" r="3" fill="#111111"/>
<circle cx="172" cy="29" r="3" fill="#111111"/>
<circle cx="172" cy="16" r="3" fill="#111111"/>
<circle cx="172" cy="3" r="3" fill="#111111"/>
<circle cx="263" cy="380" r="3" fill="#111111"/>
<circle cx="263" cy="367" r="3" fill="#111111"/>
<circle cx="263" cy="354" r="3" fill="#111111"/>
<circle cx="263" cy="341" r="3" fill="#111111"/>
<circle cx="263" cy="328" r="3" fill="#111111"/>
<circle cx="263" cy="315" r="3" fill="#111111"/>
<circle cx="263" cy="302" r="3" fill="#111111"/>
<circle cx="263" cy="289" r="3" fill="#111111"/>
<circle cx="263" cy="276" r="3" fill="#111111"/>
<circle cx="263" cy="263" r="3" fill="#111111"/>
<circle cx="263" cy="250" r="3" fill="#111111"/>
<circle cx="263" cy="237" r="3" fill="#111111"/>
<circle cx="263" cy="224" r="3" fill="#111111"/>
<circle cx="263" cy="211" r="3" fill="#111111"/>
<circle cx="263" cy="198" r="3" fill="#111111"/>
<circle cx="263" cy="185" r="3" fill="#111111"/>
<circle cx="263" cy="172" r="3" fill="#111111"/>
<circle cx="263" cy="159" r="3" fill="#111111"/>
<circle cx="263" cy="146" r="3" fill="#111111"/>
<circle cx="263" cy="133" r="3" fill="#111111"/>
<circle cx="263" cy="120" r="3" fill="#111111"/>
<circle cx="263" cy="107" r="3" fill="#111111"/>
<circle cx="263" cy="94" r="3" fill="#111111"/>
<circle cx="263" cy="81" r="3" fill="#111111"/>
<circle cx="263" cy="68" r="3" fill="#111111"/>
<circle cx="263" cy="55" r="3" fill="#111111"/>
<circle cx="263" cy="42" r="3" fill="#111111"/>
<circle cx="263" cy="29" r="3" fill="#111111"/>
<circle cx="263" cy="16" r="3" fill="#111111"/>
<circle cx="263" cy="3" r="3" fill="#111111"/>
<circle cx="289" cy="380" r="3" fill="#111111"/>
<circle cx="289" cy="367" r="3" fill="#111111"/>
<circle cx="289" cy="354" r="3" fill="#111111"/>
<circle cx="289" cy="341" r="3" fill="#111111"/>
<circle cx="289" cy="328" r="3" fill="#111111"/>
<circle cx="289" cy="315" r="3" fill="#111111"/>
<circle cx="289" cy="302" r="3" fill="#111111"/>
<circle cx="289" cy="289" r="3" fill="#111111"/>
<circle cx="289" cy="276" r="3" fill="#111111"/>
<circle cx="289" cy="263" r="3" fill="#111111"/>
<circle cx="289" cy="250" r="3" fill="#111111"/>
<circle cx="289" cy="237" r="3" fill="#111111"/>
<circle cx="289" cy="224" r="3" fill="#111111"/>
<circle cx="289" cy="211" r="3" fill="#111111"/>
<circle cx="289" cy="198" r="3" fill="#111111"/>
<circle cx="289" cy="185" r="3" fill="#111111"/>
<circle cx="289" cy="172" r="3" fill="#111111"/>
<circle cx="289" cy="159" r="3" fill="#111111"/>
<circle cx="289" cy="146" r="3" fill="#111111"/>
<circle cx="289" cy="133" r="3" fill="#111111"/>
<circle cx="289" cy="120" r="3" fill="#111111"/>
<circle cx="289" cy="107" r="3" fill="#111111"/>
<circle cx="289" cy="94" r="3" fill="#111111"/>
<circle cx="289" cy="81" r="3" fill="#111111"/>
<circle cx="289" cy="68" r="3" fill="#111111"/>
<circle cx="289" cy="55" r="3" fill="#111111"/>
<circle cx="289" cy="42" r="3" fill="#111111"/>
<circle cx="289" cy="29" r="3" fill="#111111"/>
<circle cx="289" cy="16" r="3" fill="#111111"/>
<circle cx="289" cy="3" r="3" fill="#111111"/>
</svg>
