<svg width="56" height="56" viewBox="0 0 56 56" fill="none" xmlns="http://www.w3.org/2000/svg">
<g clip-path="url(#clip0_3590_10645)">
<path d="M49.2056 11.3385L28.1583 0.123396C27.8461 -0.0432511 27.4719 -0.0409123 27.162 0.129243L6.69712 11.3443C6.36148 11.5285 6.15332 11.8805 6.15332 12.2635V26.9132C6.1656 38.9557 13.3004 49.8503 24.3342 54.6749L27.1748 55.9128C27.4403 56.0286 27.7426 56.0291 28.0087 55.914L31.2095 54.5317C42.4479 49.8117 49.7593 38.8119 49.7605 26.6226V12.2635C49.7605 11.8764 49.5471 11.5203 49.2056 11.3385ZM47.6648 26.6226C47.6625 37.9716 40.8534 48.2119 30.3891 52.6038L30.3821 52.6073L27.5947 53.8107L25.1727 52.7541C14.902 48.2634 8.26009 38.123 8.2484 26.9132V12.8839L27.6724 2.23835L47.6648 12.8915V26.6226Z" fill="white"/>
<path d="M19.9418 26.234C19.5658 25.7937 18.9045 25.7417 18.4642 26.1176C18.0239 26.493 17.9719 27.155 18.3479 27.5947L23.8829 34.0764C24.2524 34.5091 24.8997 34.5681 25.3406 34.2091L38.2315 23.7214C38.6806 23.3566 38.7484 22.6964 38.3829 22.2473C38.0181 21.7989 37.3579 21.7304 36.9088 22.0959L24.812 31.9368L19.9418 26.234Z" fill="white"/>
</g>
<defs>
<clipPath id="clip0_3590_10645">
<rect width="56" height="56" fill="white"/>
</clipPath>
</defs>
</svg>
