<svg width="59" height="56" viewBox="0 0 59 56" fill="none" xmlns="http://www.w3.org/2000/svg">
<g clip-path="url(#clip0_3590_10651)">
<path d="M54.4284 41.0399C52.2641 38.0193 49.7331 35.2774 46.8933 32.8767V30.465L58.1159 21.7606C58.2748 21.6373 58.3912 21.4676 58.4487 21.2752C58.5062 21.0827 58.502 20.8772 58.4366 20.6873C58.3713 20.4973 58.248 20.3325 58.0842 20.2158C57.9203 20.0991 57.724 20.0364 57.5226 20.0364H36.9575L30.4153 0.717804C30.3507 0.526801 30.2275 0.36084 30.0633 0.243284C29.8991 0.125729 29.702 0.0625 29.4998 0.0625C29.2977 0.0625 29.1006 0.125729 28.9363 0.243284C28.7721 0.36084 28.649 0.526801 28.5843 0.717804L22.0421 20.0364H1.47704C1.27568 20.0364 1.07935 20.0991 0.915486 20.2158C0.751618 20.3325 0.628399 20.4973 0.563048 20.6873C0.497697 20.8772 0.493478 21.0827 0.550982 21.2752C0.608485 21.4676 0.724837 21.6373 0.883779 21.7606L12.1064 30.465V32.877C9.26657 35.2775 6.73562 38.0193 4.57123 41.0398L0.690742 46.4573C0.587549 46.6014 0.526154 46.771 0.513296 46.9476C0.500438 47.1242 0.536613 47.3009 0.617852 47.4583C0.699091 47.6157 0.822252 47.7478 0.973818 47.84C1.12538 47.9322 1.2995 47.981 1.47704 47.981H6.30856V53.7627C6.30852 53.9798 6.382 54.1905 6.51708 54.3608C6.65216 54.531 6.84093 54.6507 7.0528 54.7006C7.26467 54.7505 7.48722 54.7276 7.68439 54.6356C7.88156 54.5436 8.04179 54.3879 8.13913 54.1937C9.54672 51.3935 11.4496 48.8696 13.7562 46.7435L11.1897 54.4215C11.125 54.6149 11.1235 54.8238 11.1855 55.0181C11.2474 55.2125 11.3696 55.3822 11.5343 55.5029C11.6991 55.6236 11.898 55.689 12.1025 55.6899C12.3069 55.6907 12.5064 55.6268 12.6722 55.5075L29.4998 43.388L46.3275 55.5075C46.4932 55.6268 46.6927 55.6907 46.8972 55.6899C47.1016 55.689 47.3005 55.6236 47.4653 55.5029C47.6301 55.3822 47.7522 55.2125 47.8142 55.0181C47.8761 54.8238 47.8746 54.6149 47.81 54.4215L45.2435 46.7435C47.5501 48.8696 49.4529 51.3935 50.8605 54.1937C50.9579 54.3878 51.1181 54.5435 51.3153 54.6355C51.5124 54.7275 51.735 54.7504 51.9468 54.7005C52.1587 54.6506 52.3474 54.5309 52.4825 54.3607C52.6176 54.1905 52.6911 53.9798 52.6911 53.7627V47.981H57.5226C57.7002 47.981 57.8743 47.9322 58.0258 47.84C58.1774 47.7478 58.3006 47.6157 58.3818 47.4583C58.463 47.3009 58.4992 47.1242 58.4864 46.9476C58.4735 46.771 58.4121 46.6014 58.3089 46.4573L54.4284 41.0399ZM15.4462 41.6875C15.2074 41.5344 14.9711 41.3775 14.7372 41.2166C15.1018 40.9652 15.4714 40.7235 15.846 40.4916L15.4462 41.6875ZM14.039 39.3586V30.1408L14.5512 29.7812C18.9273 26.7093 24.1482 25.0606 29.4998 25.0605C34.8514 25.0605 40.0723 26.7092 44.4484 29.7811L44.9607 30.1408V39.3586C40.3807 36.3186 35.0016 34.6966 29.4998 34.6966C23.998 34.6966 18.619 36.3186 14.039 39.3586ZM43.1537 40.4915C43.5194 40.7175 43.8804 40.9531 44.2364 41.1986C44.008 41.3561 43.7772 41.5098 43.5442 41.6599L43.1537 40.4915ZM22.7357 21.9636C22.9379 21.9636 23.1349 21.9004 23.2992 21.7829C23.4634 21.6653 23.5865 21.4993 23.6512 21.3083L29.4998 4.03785L35.3484 21.3083C35.4131 21.4993 35.5362 21.6653 35.7005 21.7829C35.8647 21.9004 36.0618 21.9636 36.2639 21.9636H54.7063L46.1373 28.6099L45.5609 28.2052C40.8591 24.9047 35.2496 23.1333 29.4998 23.1333C23.7499 23.1333 18.1404 24.9048 13.4387 28.2053L12.8624 28.6099L4.29338 21.9636H22.7357ZM8.24116 50.2099V47.0174C8.24116 46.7619 8.13935 46.5168 7.95814 46.3361C7.77692 46.1554 7.53114 46.0538 7.27486 46.0538H3.35474L6.14383 42.16C7.8915 39.7205 9.88985 37.4696 12.1064 35.444V41.204C12.1066 41.3517 12.1409 41.4973 12.2067 41.6296C12.2724 41.7619 12.3678 41.8774 12.4854 41.967L12.4844 41.9684C13.1859 42.5054 13.9173 43.0116 14.6671 43.4804C12.1641 45.3509 9.99218 47.6253 8.24116 50.2099ZM30.0656 41.4182C29.9009 41.2996 29.703 41.2358 29.4998 41.2358C29.2967 41.2358 29.0987 41.2996 28.934 41.4182L13.9712 52.1946L18.3366 39.1349C21.8245 37.4816 25.6379 36.6238 29.4998 36.6238C33.3617 36.6238 37.1751 37.4816 40.663 39.1348L45.0284 52.1946L30.0656 41.4182ZM51.7248 46.0538C51.4685 46.0538 51.2227 46.1554 51.0415 46.3361C50.8603 46.5168 50.7585 46.7619 50.7585 47.0174V50.2099C49.0018 47.6171 46.8215 45.3365 44.3084 43.4628C44.9906 43.0351 45.6567 42.5759 46.2992 42.0916C46.3236 42.0814 46.3483 42.0717 46.3721 42.0593C46.5292 41.978 46.6609 41.8553 46.7528 41.7044C46.8447 41.5536 46.8933 41.3805 46.8933 41.204V35.4444C49.1098 37.4699 51.1082 39.7207 52.8558 42.1601L55.6449 46.0538H51.7248Z" fill="white"/>
</g>
<defs>
<clipPath id="clip0_3590_10651">
<rect width="59" height="56" fill="white"/>
</clipPath>
</defs>
</svg>
