<svg width="56" height="56" viewBox="0 0 56 56" fill="none" xmlns="http://www.w3.org/2000/svg">
<g clip-path="url(#clip0_3590_10643)">
<path d="M55.9068 27.5809C55.8138 22.0833 54.1363 16.6791 50.9684 12.2064C45.9366 4.84529 37.7373 0.373069 28.8854 0.0932617C28.6056 0.0932617 28.3262 0.0932617 27.9534 0.0932617H24.2263C23.2014 0.0932617 22.3628 0.93183 22.3628 1.95679V6.42944C20.3129 6.98863 18.3559 7.73379 16.5858 8.85216L13.5109 5.68386C13.1381 5.31149 12.6724 5.1251 12.2062 5.1251C11.7404 5.1251 11.1812 5.31149 10.9018 5.68386L5.5906 10.9021C5.2178 11.2749 5.03141 11.7407 5.03141 12.2064C5.03141 12.6722 5.2178 13.1384 5.5906 13.5112L8.7589 16.6791C7.64052 18.4496 6.89537 20.4061 6.33618 22.4561H1.86353C0.838568 22.4561 0 23.2946 0 24.3196V31.7737C0 32.7987 0.838568 33.6373 1.86353 33.6373H6.33618C6.80196 35.6872 7.64052 37.6441 8.7589 39.4147L5.5906 42.4892C5.2178 42.8619 5.03141 43.3281 5.03141 43.7939C5.03141 44.2597 5.2178 44.7255 5.5906 45.0983L10.8088 50.3165C11.1812 50.6889 11.6474 50.8753 12.1132 50.8753C12.5789 50.8753 13.0447 50.6889 13.4175 50.3165L16.5858 47.1482C18.3559 48.1732 20.3129 49.0117 22.3628 49.4775V54.1366C22.3628 55.1615 23.2014 56.0001 24.2263 56.0001H27.9534H28.8854C32.1463 55.9071 35.4075 55.2549 38.4824 53.9502C43.5143 51.9002 47.8935 48.3596 51.0614 43.8869C54.3227 39.2283 55.9998 33.7307 55.9998 28.0467C55.9068 27.8603 55.9068 27.6739 55.9068 27.5809ZM27.0214 35.7806L20.4993 32.1465V23.9468L27.0214 21.0583V35.7806ZM27.0214 19.0084L19.1945 22.4561C18.8221 22.6425 18.6357 23.0153 18.6357 23.3881V32.7057C18.6357 33.0785 18.8221 33.3579 19.1015 33.5443L27.0214 37.9235V42.0234C19.6607 41.5576 13.9767 35.4078 13.9767 28.0467C13.9767 20.6855 19.6607 14.6292 27.0214 14.1634V19.0084ZM27.0214 12.2998C18.6357 12.7656 12.1132 19.754 12.1132 28.0467C12.1132 36.4328 18.6357 43.3281 27.0214 43.8869V54.1366H24.2263V48.9187C24.2263 48.453 23.947 48.0802 23.4808 47.9868C21.1515 47.521 18.9151 46.589 16.9586 45.2847C16.5858 45.0053 16.1196 45.0983 15.7473 45.3781L12.1132 49.1051L6.89537 43.8869L10.529 40.2533C10.8088 39.9734 10.9018 39.5077 10.6224 39.1349C9.31766 37.085 8.47909 34.942 7.92033 32.6123C7.82692 32.0535 7.45413 31.7737 7.08134 31.7737H1.86353V24.3196H7.08134C7.54754 24.3196 7.92033 24.0402 8.01332 23.574C8.47909 21.2447 9.41107 19.0084 10.7154 17.0519C10.9948 16.6791 10.9018 16.2133 10.6224 15.9335L6.89537 12.2064L12.1132 6.98863L15.7473 10.6223C16.0266 10.9021 16.4924 10.9951 16.9586 10.7157C18.9151 9.41135 21.1515 8.47937 23.4808 8.01359C23.947 7.92018 24.2263 7.54739 24.2263 7.17503V1.95679H27.0214V12.2998ZM53.9499 26.6489H42.8621C42.7687 23.0153 42.3029 19.3812 41.4643 15.9335C44.3528 15.5607 47.1479 14.8156 49.8504 13.8836C52.3662 17.704 53.7639 22.0833 53.9499 26.6489ZM48.7321 12.2998C46.2164 13.1384 43.5143 13.6972 40.9052 14.1634C39.321 9.13154 37.0847 5.21808 34.3826 2.88877C40.0666 4.19312 45.098 7.54739 48.7321 12.2998ZM28.8854 2.05021C32.9848 2.60897 36.8053 7.26801 39.0416 14.3498C35.6873 14.7221 32.2397 15.0019 28.8854 15.0019V2.05021ZM28.8854 16.8655C32.4261 16.8655 35.9667 16.5857 39.5074 16.1199C40.346 19.5676 40.9052 23.1082 40.9052 26.6489H28.8854V16.8655ZM28.8854 28.5124H40.9981C40.9981 32.3329 40.5324 36.2464 39.5074 39.9734C35.9667 39.5077 32.4261 39.2283 28.8854 39.2283V28.5124ZM28.8854 54.0436V41.0918C32.2397 41.0918 35.6873 41.3712 39.0416 41.744C36.8053 48.9187 32.9848 53.4844 28.8854 54.0436ZM48.7321 43.7939C47.5207 45.3781 45.6572 47.428 42.8621 49.3845C39.6008 51.7138 36.4325 52.7388 34.2896 53.298C35.6873 51.8072 37.4575 49.6639 38.8552 46.8688C39.0416 46.403 39.228 46.0303 39.5074 45.564C39.5074 45.564 39.5074 45.4711 39.6008 45.4711C40.0666 44.3531 40.4394 43.2347 40.8122 42.0234C41.4643 42.1168 42.1165 42.2098 42.7687 42.3032C43.4209 42.3962 44.073 42.5826 44.7256 42.6756C46.2164 43.0483 47.5207 43.4211 48.7321 43.7939ZM49.8504 42.2098C47.1479 41.2782 44.2594 40.6256 41.4643 40.1598C42.3959 36.3398 42.8621 32.4263 42.9551 28.4195H54.1363C53.9499 33.3579 52.4591 38.1099 49.8504 42.2098Z" fill="white"/>
</g>
<defs>
<clipPath id="clip0_3590_10643">
<rect width="56" height="56" fill="white"/>
</clipPath>
</defs>
</svg>
