<svg width="60" height="59" viewBox="0 0 60 59" fill="none" xmlns="http://www.w3.org/2000/svg">
<path d="M56.7656 13.9801C56.7403 13.9635 56.7122 13.9552 56.6859 13.9413C56.665 13.9264 56.6427 13.9135 56.6194 13.9026L30.3694 1.91824C30.2537 1.86941 30.1292 1.84424 30.0033 1.84424C29.8774 1.84424 29.7529 1.86941 29.6372 1.91824H29.6306L3.38062 13.9026C3.35665 13.9138 3.33374 13.927 3.31219 13.9423C3.28687 13.9561 3.25875 13.9644 3.23438 13.9801C3.10475 14.064 2.99835 14.1783 2.92472 14.3126C2.85108 14.447 2.81253 14.5972 2.8125 14.7498V45.1717C2.81252 45.3521 2.86636 45.5285 2.96734 45.6791C3.06833 45.8297 3.21202 45.9478 3.38062 46.0189L29.6306 57.0814C29.7473 57.1306 29.873 57.156 30 57.1561C30.1239 57.1533 30.2461 57.126 30.3591 57.0759L30.3694 57.0814L56.6194 46.0189C56.788 45.9478 56.9317 45.8297 57.0327 45.6791C57.1336 45.5285 57.1875 45.3521 57.1875 45.1717V14.7498C57.1875 14.5972 57.1489 14.447 57.0753 14.3126C57.0017 14.1783 56.8952 14.064 56.7656 13.9801ZM30 3.7795L53.9513 14.7157L47.1872 17.5661L22.2881 7.30199L30 3.7795ZM42.1875 21.6786L45.9375 20.0967V27.0845L42.1875 28.9283V21.6786ZM41.0878 20.1363L16.4362 9.97358L19.9866 8.35292L44.7891 18.5765L41.0878 20.1363ZM29.0625 54.8357L4.6875 44.5642V16.1483L29.0625 26.4198V54.8357ZM30 24.8093L6.04875 14.7157L14.1347 11.0282L38.6897 21.1476L30 24.8093ZM55.3125 44.5642L30.9375 54.8357V26.4198L40.3125 22.4696V30.4217C40.3116 30.5792 40.3518 30.7344 40.4293 30.8723C40.5067 31.0102 40.6188 31.1263 40.7548 31.2095C40.8909 31.2928 41.0464 31.3403 41.2064 31.3476C41.3665 31.3549 41.5257 31.3218 41.6691 31.2514L47.8125 28.2258V19.3085L55.3125 16.1483V44.5642Z" fill="white"/>
</svg>
